<svg xmlns="http://www.w3.org/2000/svg" viewBox="0 0 80 80" fill="none" aria-hidden="true">
  <title>Fikseraj</title>
  <path fill="#ffffff" fill-opacity="0.92" d="M10 22 36 14 62 24v44l-26-8-26 8V22Z"/>
  <path fill="#BFDBFE" d="m36 14 26 10v44l-26-8V14Z"/>
  <path stroke="#0066CC" stroke-width="2.25" stroke-linejoin="round" d="M10 22v44l26-8 26 8V24L36 14 10 22Z"/>
  <path stroke="#0066CC" stroke-width="1.5" d="M36 14v50"/>
  <path fill="#E63946" d="M40 26c-5.5 0-10 4-10 9 0 8 10 20 10 20s10-12 10-20c0-5-4.5-9-10-9Z"/>
  <circle cx="40" cy="34" r="7" fill="#ffffff"/>
  <rect x="38.25" y="30" width="3.5" height="7" rx="1" fill="#E63946"/>
  <circle cx="40" cy="39.5" r="1.35" fill="#E63946"/>
</svg>
